
        <svg xmlns="http://www.w3.org/2000/svg" xmlns:xlink="http://www.w3.org/1999/xlink" version="1.1" width="3162.2632417413315" 
        height="939.004185289144" viewBox="0 0 3162.2632417413315 939.004185289144">
			
			<g transform="scale(8.113162087066575) translate(10, 10)">
				<defs id="SvgjsDefs2423"></defs><g id="SvgjsG2424" featureKey="7KWit6-0" transform="matrix(0.13028294230842222,0,0,0.13028294230842222,-32.801122818539625,0.7787633598570558)" fill="#109c34"><g xmlns="http://www.w3.org/2000/svg"><path d="M1013.9,306.3c-23.9-85.6-79.7-156.7-157-200.3s-167-54.4-252.5-30.4c-109.1,30.6-190.2,112.6-224.6,212.5l44.9,5.6   c31.4-82.6,100.2-149.9,191.6-175.5c74.1-20.8,151.9-11.4,218.9,26.4c67.1,37.8,115.4,99.5,136.2,173.7l-38,10.6l87.8,85.7   l30.6-118.9L1013.9,306.3z"></path><path d="M771.7,673.9c-153,42.9-312.3-46.9-355.1-200.1l38-10.6l-87.8-85.7l-30.6,118.9l38-10.6c49.3,176.7,233,280.2,409.4,230.7   c109.1-30.6,190.3-112.7,224.6-212.7l-44.9-5.6C931.9,581,863.1,648.3,771.7,673.9z"></path><path d="M751.5,638V184.5h-115v453.6C673.3,646.8,712.5,647.2,751.5,638z"></path><path d="M902.9,309.2H787.8v317.2c47.1-19.2,87.3-52.6,115.1-95.1L902.9,309.2L902.9,309.2z"></path><path d="M600.2,626.5V313.6H485.1v218.3C513.3,575,553.8,607.6,600.2,626.5z"></path></g></g><g id="SvgjsG2425" featureKey="ewgXDI-0" transform="matrix(2.49097311990727,0,0,2.49097311990727,111.25631929118033,15.054161280556379)" fill="#111111"><path d="M6.18 9.42 c2.36 0 5.66 1.78 5 6.48 l-7.26 0 c0.36 1.08 1.3 1.64 2.56 1.64 c1.28 0 1.68 -0.28 2.4 -0.58 l1.74 1.68 c-0.92 0.9 -2.16 1.56 -4.26 1.56 c-2.58 0 -5.66 -1.78 -5.66 -5.36 c0 -3.64 3.12 -5.42 5.48 -5.42 z M6.18 12.120000000000001 c-0.9 0 -1.82 0.52 -2.22 1.56 l4.42 0 c-0.32 -1.04 -1.3 -1.56 -2.2 -1.56 z M20.46 9.6 l3.16 0 l0 10.4 l-3.16 0 l0 -1.04 c-0.14 0.36 -1.08 1.24 -2.68 1.24 c-2.38 0 -5.12 -1.7 -5.12 -5.42 c0 -3.58 2.74 -5.36 5.12 -5.36 c1.6 0 2.54 0.92 2.68 1.14 l0 -0.96 z M18.240000000000002 17.42 c1.3 0 2.36 -0.9 2.36 -2.64 c0 -1.68 -1.06 -2.58 -2.36 -2.58 c-1.36 0 -2.52 0.92 -2.52 2.58 c0 1.72 1.16 2.64 2.52 2.64 z M30.6 12.879999999999999 c-0.28 -0.72 -0.7 -0.96 -1.16 -0.96 c-0.42 0 -0.84 0.24 -0.84 0.64 c0 0.38 0.24 0.6 0.7 0.76 l1.32 0.46 c1.48 0.54 2.98 1.08 2.98 3.16 c0 2.1 -2.1 3.3 -4.26 3.3 c-1.94 0 -3.76 -1.14 -4.2 -2.96 l2.48 -0.78 c0.26 0.58 0.72 1.24 1.72 1.24 c0.68 0 1.12 -0.44 1.12 -0.84 c0 -0.2 -0.16 -0.46 -0.66 -0.66 l-1.22 -0.44 c-2.08 -0.76 -3.06 -1.82 -3.06 -3.3 c0 -1.94 1.8 -3.08 3.78 -3.08 c2.02 0 3.36 1.1 3.96 2.76 z M42.68000000000001 9.56 l3.14 0 l-6.36 14.24 l-3.16 0 l1.92 -4.16 l-4.5 -10.08 l3.14 0 l2.92 6.68 z M55.480000000000004 12.219999999999999 c1.4 0.4 2.84 1.66 2.84 3.66 c0 2.56 -1.6 4.12 -5.1 4.12 l-5.7 0 l0 -14 l5.32 0 c2.94 0 4.42 1.66 4.42 3.54 c0 1.54 -1 2.32 -1.78 2.68 z M52.540000000000006 8.8 l-1.8 0 l0 2.5 l1.8 0 c1.14 0 1.52 -0.52 1.52 -1.26 c0 -0.8 -0.48 -1.24 -1.52 -1.24 z M53.040000000000006 17.2 c1.42 0 2.06 -0.6 2.06 -1.74 c0 -0.96 -0.64 -1.58 -2.22 -1.58 l-2.14 0 l0 3.32 l2.3 0 z M71.38000000000001 20 l-0.98 -2.32 l-6.58 0 l-0.98 2.32 l-3.42 0 l6.22 -14 l2.94 0 l6.22 14 l-3.42 0 z M64.94000000000001 15.059999999999999 l4.36 0 l-2.18 -5.16 z M85.42000000000002 6 l3.22 0 l0 14 l-2.46 0 l-6.56 -8.14 l0 8.14 l-3.22 0 l0 -14 l2.5 0 l6.52 8.14 l0 -8.14 z M100.08000000000001 20 l-4.1 -5.86 l-1.62 1.86 l0 4 l-3.32 0 l0 -14 l3.32 0 l0 5.74 l4.78 -5.74 l3.96 0 l-5.14 5.88 l5.82 8.12 l-3.7 0 z"></path></g>
			</g>
		</svg>
	