<?xml version="1.0" standalone="no"?>
<!DOCTYPE svg PUBLIC "-//W3C//DTD SVG 20010904//EN"
 "http://www.w3.org/TR/2001/REC-SVG-20010904/DTD/svg10.dtd">
<svg version="1.0" xmlns="http://www.w3.org/2000/svg"
 width="749.000000pt" height="759.000000pt" viewBox="0 0 749.000000 759.000000"
 preserveAspectRatio="xMidYMid meet">

<g transform="translate(0.000000,759.000000) scale(0.100000,-0.100000)"
fill="#000000" stroke="none">
<path d="M3381 7429 c-163 -16 -358 -50 -536 -95 -636 -162 -1183 -476 -1635
-940 -277 -285 -472 -558 -641 -897 -69 -140 -185 -415 -177 -422 2 -1 107
-15 233 -31 l231 -29 47 115 c88 216 263 509 423 710 93 116 368 391 484 482
461 365 1033 593 1623 649 183 17 543 7 722 -20 444 -68 884 -240 1250 -489
501 -341 867 -783 1100 -1327 61 -144 138 -376 128 -386 -4 -4 -84 -28 -178
-53 -93 -26 -178 -50 -189 -54 -15 -6 58 -82 434 -450 248 -243 455 -442 458
-442 7 0 323 1222 317 1228 -1 2 -90 -21 -196 -51 l-194 -54 -46 141 c-209
638 -576 1183 -1085 1610 -330 276 -737 504 -1147 640 -240 80 -549 145 -792
166 -138 11 -510 11 -634 -1z"/>
<path d="M3100 3766 l0 -2394 117 -22 c212 -39 396 -52 598 -40 179 10 225 15
403 46 l92 16 0 2394 0 2394 -605 0 -605 0 0 -2394z"/>
<path d="M4700 3171 l0 -1670 38 16 c74 31 271 134 357 188 290 183 555 432
754 711 l61 87 0 1168 0 1169 -605 0 -605 0 0 -1669z"/>
<path d="M1500 3646 l0 -1153 56 -79 c251 -351 597 -646 979 -834 66 -32 132
-63 148 -69 l27 -11 0 1650 0 1650 -605 0 -605 0 0 -1154z"/>
<path d="M246 4099 c-3 -8 -60 -224 -126 -481 l-120 -467 0 -129 0 -129 152
43 c84 24 158 44 165 44 7 0 28 -52 48 -115 112 -360 312 -747 547 -1059 99
-131 219 -264 356 -397 583 -565 1334 -908 2144 -980 194 -17 586 -7 768 20
330 49 659 143 945 270 760 338 1372 931 1735 1684 63 129 165 376 158 382 -2
1 -107 15 -233 32 l-231 29 -28 -71 c-102 -253 -263 -526 -442 -750 -381 -477
-843 -799 -1419 -991 -214 -71 -412 -115 -625 -139 -195 -23 -583 -16 -780 14
-743 111 -1425 498 -1910 1081 -156 188 -331 473 -435 710 -59 134 -149 401
-138 410 4 3 87 28 183 55 96 26 181 51 188 54 11 6 -221 238 -825 825 -50 49
-74 65 -77 55z"/>
</g>
</svg>
